<?xml version="1.0" standalone="no"?>
<!DOCTYPE svg PUBLIC "-//W3C//DTD SVG 20010904//EN"
 "http://www.w3.org/TR/2001/REC-SVG-20010904/DTD/svg10.dtd">
<svg version="1.0" xmlns="http://www.w3.org/2000/svg"
 width="260.000000pt" height="260.000000pt" viewBox="0 0 260.000000 260.000000"
 preserveAspectRatio="xMidYMid meet">
<metadata>
Created by potrace 1.11, written by Peter Selinger 2001-2013
</metadata>
<g transform="translate(0.000000,260.000000) scale(0.100000,-0.100000)"
fill="#000000" stroke="none">
<path d="M783 2193 l-513 -297 0 -597 0 -597 503 -291 c277 -159 510 -293 518
-296 9 -3 227 117 524 289 l510 294 3 599 2 600 -513 297 c-283 163 -515 296
-518 296 -2 -1 -235 -134 -516 -297z m983 -105 l454 -261 -2 -529 -3 -530
-457 -263 -457 -264 -456 263 -455 263 -3 531 -2 530 450 261 c248 143 456
260 464 260 7 1 218 -117 467 -261z"/>
<path d="M1242 1313 c-51 -269 -92 -494 -92 -500 0 -9 18 -13 58 -13 l57 0 84
438 c47 240 90 465 97 500 l12 62 -62 0 -62 0 -92 -487z"/>
<path d="M837 1518 l-258 -141 3 -84 3 -85 253 -139 c140 -76 258 -139 263
-139 5 0 9 43 9 95 l0 95 -176 88 -176 88 127 62 c70 35 150 72 176 84 l49 20
0 99 c0 55 -3 99 -7 99 -5 -1 -124 -64 -266 -142z"/>
<path d="M1491 1563 l0 -98 178 -86 178 -86 -179 -89 -178 -89 0 -98 0 -98 88
48 c48 26 166 90 262 143 l175 96 3 86 3 85 -261 142 c-143 77 -263 141 -265
141 -3 0 -5 -44 -4 -97z"/>
</g>
</svg>
